<svg width="80" height="19" viewBox="0 0 80 19" fill="none" xmlns="http://www.w3.org/2000/svg">
<path d="M12.4918 10.0708C12.4667 8.52504 13.1284 7.32173 14.4755 6.46042C13.7158 5.34577 12.5953 4.71925 11.1138 4.57917C10.5868 4.52926 9.91299 4.65495 9.09339 4.95942C8.21175 5.28923 7.71539 5.45318 7.60529 5.45318C7.37258 5.45318 6.92574 5.31457 6.26353 5.03519C5.60275 4.75651 5.03906 4.61717 4.57361 4.61717C3.78998 4.63008 3.0609 4.84858 2.3876 5.27268C1.71405 5.69725 1.17545 6.27723 0.771564 7.01116C0.256625 7.92364 0 9.0132 0 10.2796C0 11.4195 0.189269 12.5594 0.568773 13.7001C0.923892 14.7896 1.37775 15.7459 1.92818 16.5685C2.41753 17.3161 2.84773 17.8607 3.21396 18.2033C3.7412 18.735 4.27934 18.9888 4.83118 18.963C5.18609 18.9498 5.65106 18.8171 6.22682 18.563C6.76518 18.3236 7.30449 18.203 7.84357 18.203C8.34547 18.203 8.86549 18.3228 9.40503 18.563C10.0048 18.8171 10.495 18.9435 10.8745 18.9435C11.438 18.9187 11.9643 18.6714 12.4548 18.2033C12.6255 18.0505 12.8126 17.8417 13.0145 17.5757C13.2475 17.2659 13.4712 16.9491 13.6853 16.6257C13.8638 16.347 14.0324 16.0618 14.1907 15.7708C14.3604 15.4574 14.5107 15.1338 14.6406 14.8015C14.7012 14.6622 14.7562 14.52 14.8058 14.3743C14.8545 14.2286 14.9036 14.0803 14.9525 13.9281C14.4994 13.7259 14.089 13.4397 13.7218 13.0721C12.9145 12.2626 12.5041 11.2615 12.4918 10.0708ZM25.8123 13.4582H25.7232L21.9926 4.85613H19.0631V18.735H21.6164V9.74637H21.7348L24.8525 16.8839H26.6431L29.7507 9.74637H29.8698V18.735H32.4525V4.85613H29.5429L25.8123 13.4582ZM10.1766 3.04044C10.8261 2.21688 11.1507 1.33023 11.1507 0.379995V0.190242C11.1507 0.126421 11.1444 0.0633325 11.1324 0C10.679 0.0253331 10.1986 0.171242 9.68989 0.436751C9.18193 0.703234 8.76264 1.03938 8.43143 1.44398C7.77044 2.2427 7.43944 3.0972 7.43944 4.00945V4.18944C7.43944 4.24693 7.44572 4.30686 7.45779 4.37068C8.47463 4.47176 9.38094 4.02818 10.1766 3.04044ZM62.2932 4.85613H65.1629V18.7353H62.2932V4.85613ZM73.8304 7.06229C75.5321 7.06229 76.4324 8.38426 76.4324 9.8078H79.1842V9.51276C79.1842 6.82871 77.1554 4.59208 73.8104 4.59208C70.2278 4.59208 68.0904 6.97121 68.0904 11.0284V12.5944C68.0904 16.6503 70.2078 19 73.8003 19C77.2343 19 79.1842 16.7317 79.1842 14.2106V13.9056H76.4324C76.4324 15.3399 75.5522 16.5293 73.8506 16.5293C72.1082 16.5293 70.9996 15.2784 70.9996 12.6039V11.0391C70.9996 8.37378 72.1184 7.06229 73.8304 7.06229ZM43.428 13.6204C43.428 15.4817 42.3496 16.5081 40.7662 16.5081C39.173 16.5081 38.0946 15.4913 38.0946 13.6204V4.85613H35.2442V14.0272C35.2442 16.9867 37.3221 18.9997 40.7659 18.9997C44.2 18.9997 46.2876 16.9867 46.2876 14.0272V4.85613H43.428V13.6204ZM55.7824 10.6519L53.734 10.1846C52.5269 9.92958 51.8935 9.39098 51.8935 8.58738C51.8935 7.52025 52.7543 6.84894 54.1404 6.84894C55.7038 6.84894 56.4856 7.75385 56.5546 8.73015H59.2266C59.1968 6.27944 57.1684 4.57138 54.1499 4.57138C51.2904 4.57138 49.0337 6.08676 49.0337 8.81151C49.0337 11.1704 50.6174 12.2678 52.5175 12.6858L54.5459 13.1632C55.9116 13.4784 56.604 13.9363 56.604 14.8812C56.604 15.9598 55.7529 16.692 54.1601 16.692C52.4478 16.692 51.5473 15.7766 51.4684 14.7494H48.7169C48.7575 16.7119 50.0438 18.9997 54.0219 18.9997C57.3664 18.9997 59.4353 17.3222 59.4353 14.5962C59.4343 12.0746 57.7617 11.0883 55.7824 10.6519Z" fill="white"/>
</svg>
