<svg width="89" height="21" viewBox="0 0 89 21" fill="none" xmlns="http://www.w3.org/2000/svg">
<path d="M13.8971 11.1309C13.8692 9.42241 14.6053 8.09244 16.104 7.14046C15.2588 5.90848 14.0123 5.21601 12.3641 5.06119C11.7778 5.00602 11.0282 5.14494 10.1164 5.48146C9.13557 5.84599 8.58337 6.0272 8.46088 6.0272C8.202 6.0272 7.70488 5.874 6.96818 5.56521C6.23306 5.2572 5.60595 5.10319 5.08814 5.10319C4.21635 5.11746 3.40525 5.35896 2.6562 5.8277C1.90688 6.29696 1.30769 6.93799 0.858365 7.74918C0.285495 8.75771 0 9.96196 0 11.3617C0 12.6216 0.210562 13.8814 0.63276 15.1422C1.02783 16.3464 1.53275 17.4034 2.1451 18.3126C2.6895 19.1388 3.1681 19.7408 3.57553 20.1194C4.16208 20.7071 4.76076 20.9876 5.37469 20.9591C5.76952 20.9445 6.2868 20.7978 6.92734 20.517C7.52626 20.2524 8.12624 20.1191 8.72597 20.1191C9.28434 20.1191 9.86286 20.2515 10.4631 20.517C11.1303 20.7978 11.6757 20.9375 12.0979 20.9375C12.7248 20.9101 13.3103 20.6368 13.856 20.1194C14.0459 19.9506 14.254 19.7198 14.4786 19.4258C14.7378 19.0834 14.9867 18.7332 15.2249 18.3758C15.4235 18.0677 15.611 17.7525 15.7871 17.4309C15.976 17.0845 16.1432 16.7268 16.2877 16.3596C16.3551 16.2056 16.4163 16.0484 16.4714 15.8874C16.5256 15.7264 16.5802 15.5624 16.6347 15.3942C16.1306 15.1707 15.674 14.8544 15.2655 14.4481C14.3674 13.5534 13.9108 12.4469 13.8971 11.1309ZM28.7162 14.8748H28.6171L24.4668 5.3673H21.2077V20.7071H24.0482V10.7723H24.18L27.6484 18.6612H29.6404L33.0977 10.7723H33.2302V20.7071H36.1034V5.3673H32.8665L28.7162 14.8748ZM11.3215 3.36049C12.044 2.45024 12.4052 1.47025 12.4052 0.419995V0.210267C12.4052 0.139729 12.3982 0.0699991 12.3848 0C11.8804 0.0279997 11.3459 0.189267 10.78 0.482725C10.2149 0.777259 9.74844 1.14879 9.37997 1.59598C8.64461 2.47877 8.27638 3.42322 8.27638 4.4315V4.63043C8.27638 4.69398 8.28336 4.76021 8.29679 4.83075C9.42803 4.94247 10.4363 4.4522 11.3215 3.36049ZM69.3012 5.3673H72.4937V20.7074H69.3012V5.3673ZM82.1363 7.80569C84.0295 7.80569 85.031 9.26681 85.031 10.8402H88.0924V10.5141C88.0924 7.54752 85.8354 5.07546 82.1141 5.07546C78.1284 5.07546 75.7506 7.70502 75.7506 12.1893V13.9201C75.7506 18.403 78.1062 21 82.1028 21C85.9232 21 88.0924 18.4929 88.0924 15.7064V15.3694H85.031C85.031 16.9546 84.0518 18.2692 82.1588 18.2692C80.2204 18.2692 78.9871 16.8867 78.9871 13.9306V12.2011C78.9871 9.25523 80.2317 7.80569 82.1363 7.80569ZM48.3137 15.0541C48.3137 17.1113 47.1139 18.2458 45.3524 18.2458C43.58 18.2458 42.3802 17.122 42.3802 15.0541V5.3673H39.2092V15.5037C39.2092 18.7748 41.5208 20.9997 45.3521 20.9997C49.1725 20.9997 51.4949 18.7748 51.4949 15.5037V5.3673H48.3137V15.0541ZM62.0579 11.7731L59.7791 11.2567C58.4362 10.9748 57.7315 10.3795 57.7315 9.49132C57.7315 8.31186 58.6892 7.56988 60.2312 7.56988C61.9705 7.56988 62.8402 8.57004 62.917 9.64911H65.8896C65.8564 6.94043 63.5999 5.05258 60.2418 5.05258C57.0606 5.05258 54.55 6.72747 54.55 9.73904C54.55 12.3462 56.3118 13.5591 58.4257 14.0211L60.6823 14.5488C62.2017 14.8972 62.9719 15.4033 62.9719 16.4476C62.9719 17.6398 62.0251 18.4491 60.2531 18.4491C58.3482 18.4491 57.3464 17.4373 57.2586 16.302H54.1976C54.2427 18.4711 55.6737 20.9997 60.0994 20.9997C63.8201 20.9997 66.1218 19.1456 66.1218 16.1326C66.1207 13.3456 64.2599 12.2555 62.0579 11.7731Z" fill="white"/>
</svg>
