<svg xmlns="http://www.w3.org/2000/svg" width="98.33" height="15.445" viewBox="0 0 98.33 15.445">
  <g id="g10" transform="translate(0 310.147)">
    <g id="g12" transform="translate(0 -310.147)">
      <path id="path14" d="M419.5-305.488c-1.583,0-2.392,1.246-2.392,3.124,0,1.775.875,3.107,2.392,3.107,1.716,0,2.359-1.57,2.359-3.107,0-1.6-.81-3.124-2.36-3.124m-4.206-4.659h1.881v4.505h.033a3.078,3.078,0,0,1,2.541-1.382c2.689,0,3.993,2.117,3.993,4.694,0,2.372-1.155,4.608-3.679,4.608a3.012,3.012,0,0,1-2.953-1.45h-.033v1.212h-1.782v-12.186h0" transform="translate(-394.613 310.147)" fill="#fff"/>
      <path id="path16" d="M606.556-241.343c0,1.229-1.287,1.673-2.112,1.673-.66,0-1.733-.257-1.733-1.127,0-1.024.726-1.332,1.535-1.468a6.527,6.527,0,0,0,2.31-.528Zm8.049-6.094a3.037,3.037,0,0,0-2.656,1.571l-.033-.035v-1.3h-1.782v7.515c-1.073.012-1.173.012-1.254.012-.346,0-.446-.188-.446-.666v-4.54c0-1.86-1.749-2.56-3.416-2.56-1.881,0-3.745.665-3.876,2.936h1.88c.083-.956.825-1.4,1.881-1.4.759,0,1.765.188,1.765,1.2,0,1.143-1.2.99-2.557,1.246-1.584.187-3.283.547-3.283,2.747a2.623,2.623,0,0,0,2.92,2.577,4.292,4.292,0,0,0,2.954-1.074,1.268,1.268,0,0,0,1.452,1.074c.313,0,.907-.119,3.85-.221v-.017h.012v-5.2a2.123,2.123,0,0,1,2.062-2.322c1.105,0,1.634.6,1.666,1.98v5.547h1.882v-6.059a2.738,2.738,0,0,0-3.017-3" transform="translate(-570.906 250.56)" fill="#fff"/>
      <path id="path18" d="M967.209-299.25c1.683,0,2.392-1.588,2.392-3.124,0-1.945-.907-3.106-2.36-3.106-1.765,0-2.393,1.622-2.393,3.209,0,1.519.726,3.021,2.36,3.021m4.207,1.3h-1.782v-1.195H969.6a2.809,2.809,0,0,1-2.64,1.433c-2.689,0-3.993-2.065-3.993-4.71,0-3.192,1.832-4.591,3.7-4.591a3.249,3.249,0,0,1,2.837,1.382h.034v-4.505h1.881v12.186h0" transform="translate(-915.012 310.14)" fill="#fff"/>
      <path id="path20" d="M1164.945-244.234A1.821,1.821,0,0,0,1163-245.89c-.974,0-2.343.529-2.343,3.209,0,1.468.627,3.021,2.26,3.021a2.058,2.058,0,0,0,2.029-2.015h1.881c-.347,2.287-1.716,3.55-3.91,3.55-2.673,0-4.141-1.962-4.141-4.557,0-2.662,1.4-4.745,4.207-4.745,1.98,0,3.663,1.024,3.844,3.192h-1.881" transform="translate(-1101.067 250.55)" fill="#fff"/>
      <path id="path22" d="M1341.083-241.343c0,1.229-1.287,1.673-2.112,1.673-.659,0-1.732-.257-1.732-1.127,0-1.024.726-1.332,1.534-1.468a6.52,6.52,0,0,0,2.31-.528Zm13.1-6.094a3.054,3.054,0,0,0-2.673,1.468,2.409,2.409,0,0,0-2.393-1.468,2.831,2.831,0,0,0-2.623,1.468h-.05V-247.2h-1.783v7.515c-1.072.012-1.172.012-1.255.012-.346,0-.445-.188-.445-.666v-4.54c0-1.86-1.748-2.56-3.416-2.56-1.881,0-3.745.665-3.877,2.936h1.881c.082-.956.825-1.4,1.881-1.4.759,0,1.765.188,1.765,1.2,0,1.143-1.2.99-2.557,1.246-1.584.187-3.283.547-3.283,2.747a2.623,2.623,0,0,0,2.92,2.577,4.292,4.292,0,0,0,2.954-1.074,1.268,1.268,0,0,0,1.452,1.074c.313,0,.907-.119,3.823-.221v-.017h.038v-5.239c0-1.468.891-2.287,1.865-2.287,1.138,0,1.5.648,1.5,1.861v5.666h1.88v-5.171c0-1.485.545-2.355,1.815-2.355,1.468,0,1.551.973,1.551,2.373v5.154h1.881v-6.093c0-2.151-1.054-2.97-2.852-2.97" transform="translate(-1268.855 250.56)" fill="#fff"/>
      <path id="path24" d="M1809.056-245.9c-1.584,0-2.393,1.246-2.393,3.124,0,1.775.875,3.107,2.393,3.107,1.716,0,2.36-1.57,2.36-3.107,0-1.6-.81-3.124-2.36-3.124m-4.207-1.3h1.782V-246h.033a2.826,2.826,0,0,1,2.639-1.434c2.689,0,3.993,2.117,3.993,4.694,0,2.372-1.155,4.607-3.678,4.607a3.278,3.278,0,0,1-2.855-1.382h-.033v4.4h-1.881V-247.2h0" transform="translate(-1714.966 250.56)" fill="#fff"/>
      <path id="path26" d="M14.107-297.987H0l6.588-12.16H20.694l-6.588,12.16" transform="translate(0 310.147)" fill="#fff"/>
    </g>
  </g>
</svg>
