<svg id="Beatport-logo" xmlns="http://www.w3.org/2000/svg" width="92.543" height="14.652" viewBox="0 0 92.543 14.652">
  <path id="path6684" d="M496.417,11.316c.051,0,.374-.007.491-.007a.479.479,0,0,1,.476.425v1.077c-.022.073,0,.337-.454.374h-.6a4.12,4.12,0,0,1-4.322-4.337V1.1a.438.438,0,0,1,.425-.44h1.018a.446.446,0,0,1,.44.44V2.73h3.436a.477.477,0,0,1,.41.425V4.239a.452.452,0,0,1-.41.388H493.89V8.767a2.373,2.373,0,0,0,2.527,2.549" transform="translate(-405.193 -0.547)" fill="#fff"/>
  <path id="path6690" d="M450.619,22.456a.451.451,0,0,1-.44.44h-1.011a.433.433,0,0,1-.425-.44V16.793a4.114,4.114,0,0,1,4.322-4.337h1.927c.462.037.432.3.454.374v1.077a.479.479,0,0,1-.476.425l-1.817-.007a2.374,2.374,0,0,0-2.527,2.535v5.6h-.007" transform="translate(-369.563 -10.258)" fill="#fff"/>
  <path id="path6696" d="M304.554,12.14c.051,0,.374-.007.491-.007a.479.479,0,0,1,.476.425v1.077c-.022.073,0,.337-.454.374h-.6a4.114,4.114,0,0,1-4.322-4.337V1.934a.438.438,0,0,1,.425-.44h1.011a.446.446,0,0,1,.44.44V3.561h3.436a.477.477,0,0,1,.41.425V5.07a.452.452,0,0,1-.41.388h-3.436V9.6a2.394,2.394,0,0,0,2.535,2.542" transform="translate(-247.183 -1.231)" fill="#fff"/>
  <path id="path6702" d="M194.492,14.319l3.311-.007c.6.073.813.381.813,1.092v.725c-.044.535-.1,1.092-1.092,1.092h-3.993V15.425c.022-1.04.542-1.077.96-1.106m4.865,6.645-4.689.007c-1.055,0-1.143-.44-1.143-1.8V19.11h4.022c1.846-.007,2.894-1.106,2.952-3.1v-.6a2.766,2.766,0,0,0-3.026-3h-2.813c-1.941.015-2.923,1.033-3,3.121l-.007,3.626c0,1.832.359,3.7,3.026,3.7h4.674a.458.458,0,0,0,.52-.484v-1c-.007-.147-.073-.41-.52-.418" transform="translate(-157.839 -10.224)" fill="#fff"/>
  <path id="path6708" d="M398.668,20.964l-1.326.022h-1.663c-.857,0-1.143-.278-1.143-1.114V15.426c.015-1.048.535-1.077.952-1.106l2.989-.007c1.055,0,1.143.44,1.143,1.795V19.85c-.007,1.048-.535,1.084-.952,1.114m2.835-4.85c0-1.832-.359-3.7-3.026-3.7H395.65c-1.941.015-2.923,1.033-3,3.121v4.337a2.766,2.766,0,0,0,3.026,3H398.5c1.941-.015,2.923-1.033,3-3.121V16.114h.007" transform="translate(-323.37 -10.224)" fill="#fff"/>
  <path id="path6714" d="M142.157,10.718l-1.326.007h-1.707c-.864,0-1.15-.286-1.15-1.121L137.967,4h3.978c1.062,0,1.15.44,1.15,1.817l.007,3.8c-.015,1.04-.52,1.07-.945,1.1M145,5.817c0-1.846-.359-3.729-3.048-3.729h-3.985V.44a.446.446,0,0,0-.439-.44H136.5a.451.451,0,0,0-.44.44V9.6a2.8,2.8,0,0,0,3.062,3.018H142c1.941-.015,2.923-1.033,3-3.121V5.817H145" transform="translate(-112.054)" fill="#fff"/>
  <path id="path6720" d="M250.25,20.964l-3.26.007c-.652-.059-.879-.359-.879-1.1v-.725c.044-.535.1-1.092,1.092-1.092h3.993l.015,1.8c-.022,1.048-.542,1.077-.96,1.106m2.828-3.2V16.114c0-1.832-.359-3.7-3.026-3.7H245.37a.458.458,0,0,0-.52.484v.989c0,.154.066.418.513.425l4.689-.007c1.055,0,1.143.44,1.143,1.8v.059h-4.022c-1.846.007-2.9,1.106-2.952,3.1v.6a2.766,2.766,0,0,0,3.026,3h1.67l.007.007h1.158c1.941-.015,2.923-1.033,3-3.121V17.762" transform="translate(-201.128 -10.224)" fill="#fff"/>
  <path id="path6726" d="M343.252,20.737a1.252,1.252,0,0,1-.894.256h-3.949V15.44c0-.835.3-1.128,1.143-1.128h3.128a.982.982,0,0,1,.571.234,1.81,1.81,0,0,1,.242,1.253c0,.029-.007,3.6-.007,3.685a1.774,1.774,0,0,1-.234,1.253m2.139-4.659c0-1.9-.366-3.663-3.026-3.663H339.56a2.775,2.775,0,0,0-3.026,3.018l-.015,9c0,.271.132.44.352.44h1.1a.451.451,0,0,0,.44-.44V22.854h3.949c2.659,0,3.026-1.758,3.026-3.663v-.821l.007-2.293" transform="translate(-277.141 -10.224)" fill="#fff"/>
  <path id="path6814" d="M29.018,10.465a7.011,7.011,0,1,0-12.12,4.8.44.44,0,0,0,.618.019l.753-.715a.429.429,0,0,0,.019-.608,5.1,5.1,0,1,1,7.436,0,.429.429,0,0,0,.019.608l.753.715a.44.44,0,0,0,.618-.019,7.006,7.006,0,0,0,1.9-4.8" transform="translate(-12.35 -2.844)" fill="#fff"/>
  <path id="path6820" d="M95.33,28.505a9.466,9.466,0,0,0-.425-2.8.442.442,0,0,0-.541-.28l-.995.309a.431.431,0,0,0-.29.541,7.493,7.493,0,0,1-.715,6.055.42.42,0,0,0,.155.589l.888.531a.438.438,0,0,0,.6-.145,9.277,9.277,0,0,0,1.323-4.8" transform="translate(-76.015 -20.923)" fill="#fff"/>
  <path id="path6826" d="M2.965,32.33a7.493,7.493,0,0,1-.715-6.055.431.431,0,0,0-.29-.541l-.995-.309a.434.434,0,0,0-.541.28,9.416,9.416,0,0,0,.9,7.61.436.436,0,0,0,.6.145l.888-.531a.45.45,0,0,0,.155-.6" transform="translate(0 -20.923)" fill="#fff"/>
</svg>
