<svg xmlns="http://www.w3.org/2000/svg" width="89.609" height="26.222" viewBox="0 0 89.609 26.222">
  <defs>
    <style>
      .cls-1 {
        fill: #fff;
      }
    </style>
  </defs>
  <g id="Group_12" data-name="Group 12" transform="translate(-110.16 -338.692)">
    <path id="Path_17" data-name="Path 17" class="cls-1" d="M128.6,354.972a6.65,6.65,0,1,1-11.567-4.508l-4.508,4.508-2.366-2.366,5.085-5.03a3.558,3.558,0,0,0,1.043-2.571v-6.315h3.334v6.315a6.706,6.706,0,0,1-2.03,4.917l-.15.149a6.673,6.673,0,0,1,11.158,4.9m-3.017,0a3.632,3.632,0,1,0-3.651,3.613,3.618,3.618,0,0,0,3.651-3.613" transform="translate(0)"/>
    <path id="Path_18" data-name="Path 18" class="cls-1" d="M222.817,381.525a5.307,5.307,0,0,1,3.257.876,3.186,3.186,0,0,1,.547,4.334,3.057,3.057,0,0,1-1.761.995q2.865.492,2.865,3.011a3.111,3.111,0,0,1-1.232,2.609,5.656,5.656,0,0,1-3.512.949h-4.854V381.525Zm-2.591,5.42h2.646a2.542,2.542,0,0,0,1.669-.493,1.663,1.663,0,0,0,.593-1.351,1.636,1.636,0,0,0-.593-1.341,2.578,2.578,0,0,0-1.669-.484h-2.646Zm0,5.584H223a3.122,3.122,0,0,0,1.907-.5,1.649,1.649,0,0,0,.666-1.4,1.7,1.7,0,0,0-.675-1.442,3.093,3.093,0,0,0-1.9-.511h-2.774Z" transform="translate(-83.266 -33.034)"/>
    <path id="Path_19" data-name="Path 19" class="cls-1" d="M262.415,398.314a4.109,4.109,0,0,1,1.606-1.679,4.653,4.653,0,0,1,2.363-.593,5,5,0,0,1,2.381.548,4.069,4.069,0,0,1,1.624,1.551,4.672,4.672,0,0,1,.612,2.354,5.3,5.3,0,0,1-.055.748H263.9v.11a2.91,2.91,0,0,0,.767,1.934,2.454,2.454,0,0,0,1.843.712,2.629,2.629,0,0,0,1.533-.429,2.029,2.029,0,0,0,.821-1.213h1.971a3.782,3.782,0,0,1-1.378,2.336,4.293,4.293,0,0,1-2.8.912,5.227,5.227,0,0,1-2.546-.593,4.145,4.145,0,0,1-1.679-1.67,5.1,5.1,0,0,1-.593-2.5,5.322,5.322,0,0,1,.575-2.527m6.578,1.488a2.383,2.383,0,0,0-.812-1.6,2.59,2.59,0,0,0-1.724-.575,2.505,2.505,0,0,0-1.669.593,2.314,2.314,0,0,0-.812,1.579Z" transform="translate(-116.978 -44.229)"/>
    <path id="Path_20" data-name="Path 20" class="cls-1" d="M312.233,403.779v1.715h-1.04a1.863,1.863,0,0,1-1.314-.383,1.467,1.467,0,0,1-.4-1.113,3.464,3.464,0,0,1-3.084,1.606,4.022,4.022,0,0,1-2.518-.73,2.392,2.392,0,0,1-.949-2.007,2.618,2.618,0,0,1,1.022-2.217,4.858,4.858,0,0,1,2.975-.776h2.353v-.565a1.5,1.5,0,0,0-.547-1.232,2.333,2.333,0,0,0-1.515-.447A2.485,2.485,0,0,0,305.8,398a1.472,1.472,0,0,0-.666.995H303.2a2.911,2.911,0,0,1,1.241-2.18,4.849,4.849,0,0,1,2.865-.776,4.33,4.33,0,0,1,2.9.876,3.135,3.135,0,0,1,1.022,2.518v3.686q0,.656.62.657Zm-2.956-2.445h-2.445a2.374,2.374,0,0,0-1.405.356,1.212,1.212,0,0,0-.493,1.049,1.169,1.169,0,0,0,.465.967,2,2,0,0,0,1.268.364,2.641,2.641,0,0,0,1.907-.657,2.372,2.372,0,0,0,.7-1.752Z" transform="translate(-148.665 -44.229)"/>
    <path id="Path_21" data-name="Path 21" class="cls-1" d="M341.517,389.457h-1.624v-1.733h1.624v-2.609h1.989v2.609h2.244v1.733h-2.244v4.872a1.106,1.106,0,0,0,.219.776,1.01,1.01,0,0,0,.749.228h1.5v1.734h-1.9a2.208,2.208,0,0,1-2.555-2.536Z" transform="translate(-177.174 -35.802)"/>
    <path id="Path_22" data-name="Path 22" class="cls-1" d="M376.01,396.616a3.987,3.987,0,0,1,1.569,1.661,5.441,5.441,0,0,1,.565,2.545,5.359,5.359,0,0,1-.565,2.509,4.1,4.1,0,0,1-1.569,1.679,4.4,4.4,0,0,1-2.281.593,3.994,3.994,0,0,1-1.807-.383,3.2,3.2,0,0,1-1.223-1.04v4.963h-1.97V396.151h1.715l.237,1.387a3.623,3.623,0,0,1,3.047-1.5,4.508,4.508,0,0,1,2.281.575m-.629,6.45a3.309,3.309,0,0,0,.757-2.244,3.268,3.268,0,0,0-.757-2.244,2.713,2.713,0,0,0-3.95-.009,3.227,3.227,0,0,0-.748,2.217,3.386,3.386,0,0,0,.748,2.281,2.463,2.463,0,0,0,1.97.876,2.492,2.492,0,0,0,1.98-.876" transform="translate(-199.413 -44.229)"/>
    <path id="Path_23" data-name="Path 23" class="cls-1" d="M414.787,405.011a4.127,4.127,0,0,1-1.679-1.679,5.562,5.562,0,0,1,0-5,4.185,4.185,0,0,1,1.679-1.688,5.452,5.452,0,0,1,4.981,0,4.191,4.191,0,0,1,1.679,1.688,5.568,5.568,0,0,1,0,5,4.132,4.132,0,0,1-1.679,1.679,5.528,5.528,0,0,1-4.981,0m4.489-1.953a3.677,3.677,0,0,0,0-4.47,2.526,2.526,0,0,0-2-.867,2.5,2.5,0,0,0-1.989.867,3.712,3.712,0,0,0,0,4.47,2.5,2.5,0,0,0,1.989.867,2.525,2.525,0,0,0,2-.867" transform="translate(-233.182 -44.229)"/>
    <path id="Path_24" data-name="Path 24" class="cls-1" d="M462.265,396.52v1.843h-.876a2,2,0,0,0-1.77.794,3.475,3.475,0,0,0-.548,2.016v4.689H457.1V396.52h1.751l.219,1.405a2.959,2.959,0,0,1,1.041-1.031,3.383,3.383,0,0,1,1.715-.374Z" transform="translate(-267.567 -44.598)"/>
    <path id="Path_25" data-name="Path 25" class="cls-1" d="M482.459,385.114h1.971v2.609h2.262v1.733H484.43v4.872a1.105,1.105,0,0,0,.219.776,1.008,1.008,0,0,0,.748.228h1.5v1.734H485a2.6,2.6,0,0,1-1.935-.62,2.663,2.663,0,0,1-.6-1.916Z" transform="translate(-287.124 -35.802)"/>
  </g>
</svg>
