<svg xmlns="http://www.w3.org/2000/svg" width="85.76" height="16.397" viewBox="0 0 85.76 16.397">
  <defs>
    <style>
      .cls-1 {
        fill: #fff;
      }
    </style>
  </defs>
  <g id="Grupo_16" data-name="Grupo 16" transform="translate(-3549 -2559)">
    <g id="g8252" transform="translate(3549 2559)">
      <path id="path8175" class="cls-1" d="M234.1-75.917c0,3.439,2.118,5.5,5.266,5.5a4.019,4.019,0,0,0,3.628-1.587v1.587h2.873V-86.8h-2.984v6.964a3.777,3.777,0,0,0-3.5-1.664c-3.07-.009-5.283,2.093-5.283,5.583Zm8.876,0a2.965,2.965,0,0,1-2.942,3.19,2.931,2.931,0,0,1-2.942-3.19,2.969,2.969,0,0,1,2.942-3.25A3.008,3.008,0,0,1,242.976-75.917Z" transform="translate(-214.024 86.8)"/>
      <path id="path8177" class="cls-1" d="M389.09-18.331a2.4,2.4,0,0,1-2.573,1.9,2.694,2.694,0,0,1-2.924-2.659h7.521a6.149,6.149,0,0,0,.137-1.355c0-3.044-2.075-4.76-5.137-4.76a5.287,5.287,0,0,0-5.514,5.48c0,3.516,2.478,5.626,5.909,5.626,2.59,0,4.348-1.081,5.12-3.233Zm-5.5-2.744a2.485,2.485,0,0,1,2.53-1.947c1.338,0,2.247.72,2.247,1.852l-.017.094Z" transform="translate(-347.96 30.483)"/>
      <path id="path8179" class="cls-1" d="M518.19-18.331a2.4,2.4,0,0,1-2.573,1.9,2.7,2.7,0,0,1-2.924-2.659h7.521a6.147,6.147,0,0,0,.137-1.355c0-3.044-2.075-4.76-5.137-4.76a5.287,5.287,0,0,0-5.514,5.48c0,3.516,2.478,5.626,5.909,5.626,2.59,0,4.348-1.081,5.12-3.233Zm-5.5-2.744a2.485,2.485,0,0,1,2.53-1.947c1.338,0,2.247.72,2.247,1.852l-.017.094Z" transform="translate(-465.988 30.483)"/>
      <path id="path8181" class="cls-1" d="M650.008-13.994v-2.7h-6.269l6.1-5.935V-25.1h-9.648v2.573h5.892L640-16.567v2.573Z" transform="translate(-585.114 30.391)"/>
      <path id="path8183" class="cls-1" d="M767.89-18.331a2.4,2.4,0,0,1-2.573,1.9,2.694,2.694,0,0,1-2.924-2.659h7.521a6.15,6.15,0,0,0,.137-1.355c0-3.044-2.075-4.76-5.137-4.76a5.287,5.287,0,0,0-5.514,5.48c0,3.516,2.479,5.626,5.909,5.626,2.59,0,4.348-1.081,5.12-3.233Zm-5.5-2.744a2.485,2.485,0,0,1,2.53-1.947c1.338,0,2.247.72,2.247,1.852l-.017.094Z" transform="translate(-694.274 30.483)"/>
      <rect id="rect8185" class="cls-1" width="3.679" height="2.153" transform="translate(13.336 5.291)"/>
      <rect id="rect8192" class="cls-1" width="3.679" height="2.153" transform="translate(13.336 8.276)"/>
      <rect id="rect8199" class="cls-1" width="3.679" height="2.153" transform="translate(13.336 11.26)"/>
      <rect id="rect8206" class="cls-1" width="3.679" height="2.153" transform="translate(0 14.245)"/>
      <rect id="rect8213" class="cls-1" width="3.679" height="2.153" transform="translate(4.442 14.245)"/>
      <rect id="rect8220" class="cls-1" width="3.679" height="2.153" transform="translate(8.893 14.245)"/>
      <rect id="rect8227" class="cls-1" width="3.679" height="2.153" transform="translate(13.336 14.245)"/>
      <rect id="rect8234" class="cls-1" width="3.679" height="2.153" transform="translate(8.893 11.26)"/>
      <rect id="rect8241" class="cls-1" width="3.679" height="2.153" transform="translate(4.442 11.26)"/>
      <rect id="rect8248" class="cls-1" width="3.679" height="2.153" transform="translate(4.442 8.276)"/>
      <path id="path8250" class="cls-1" d="M902.652-21.084v.317h2.907v-.849a3.05,3.05,0,0,0-3.19-3.285,2.755,2.755,0,0,0-2.667,1.664V-24.9h-3v11.089h3v-7.144c0-1.132.609-1.758,1.544-1.758A1.534,1.534,0,0,1,902.652-21.084Z" transform="translate(-819.799 30.209)"/>
    </g>
  </g>
</svg>
