<?xml version="1.0" encoding="utf-8"?>
<!-- Generator: Adobe Illustrator 25.2.1, SVG Export Plug-In . SVG Version: 6.00 Build 0)  -->
<svg version="1.1" id="Capa_1" xmlns="http://www.w3.org/2000/svg" xmlns:xlink="http://www.w3.org/1999/xlink" x="0px" y="0px"
	 viewBox="0 0 440.32 367.31" style="enable-background:new 0 0 440.32 367.31;" xml:space="preserve">
<style type="text/css">
	.st0{fill-rule:evenodd;clip-rule:evenodd;fill:#FFFFFF;}
</style>
<g>
	<path class="st0" d="M136.61,212.24c1.71,0.25,2.64-0.54,3.43-1.36c1.68-1.75,3.41-3.49,4.83-5.45c8.3-11.38,14.9-23.69,19.5-37.02
		c0.74-2.13,1.16-4.37,1.66-6.57c0.87-3.83,4.73-6.14,8.46-5c2.84,0.87,4.44,2.81,4.2,5.77c-0.2,2.4-0.68,4.82-1.37,7.13
		c-1.72,5.78-3.64,11.5-5.47,17.25c-0.35,1.1-0.62,2.22-0.6,3.57c0.4-0.31,0.88-0.56,1.18-0.95c1.06-1.4,2.17-2.79,3.07-4.29
		c5.54-9.29,10.99-18.63,16.57-27.9c3.07-5.11,6-10.26,8-15.91c1.43-4.03,4.14-7.08,7.91-9.09c1.16-0.62,2.47-1.1,3.77-1.29
		c2.65-0.39,4.41,1.38,4.06,4.04c-0.16,1.22-0.6,2.45-1.11,3.58c-0.72,1.6-1.62,3.12-2.44,4.68c-6.69,12.68-13.38,25.36-20.07,38.04
		c-0.26,0.49-0.48,0.99-0.36,1.71c0.94-1.14,1.88-2.28,2.82-3.43c8.47-10.41,16.88-20.87,26.11-30.63c2.65-2.8,5.4-5.51,8.21-8.15
		c1.21-1.14,2.62-2.11,4.06-2.94c1.07-0.61,2.31-1.04,3.53-1.21c2.51-0.37,4.01,0.68,4.08,3.2c0.06,2.05-0.29,4.18-0.88,6.15
		c-1,3.37-2.49,6.59-3.48,9.97c-2.11,7.23-4.04,14.52-6.03,21.79c-0.15,0.55-0.2,1.13-0.38,2.22c0.7-0.7,1.11-1.02,1.41-1.42
		c8.83-12.04,17.61-24.11,26.5-36.11c1.79-2.41,3.86-4.64,6-6.75c1.82-1.79,4.15-2.76,6.72-3.17c3.28-0.52,6.15,0.19,8.64,2.41
		c0.87,0.77,1.75,1.53,2.82,2.46c0.33-0.63,0.64-1.09,0.82-1.59c3.72-10.36,6.85-20.85,7.67-31.92c0.3-4.09,0.93-8.16,1.55-12.22
		c0.24-1.55,0.73-3.1,1.35-4.55c0.88-2.05,2.59-3.29,4.74-3.79c4.09-0.95,8.41,2.23,7.26,7.46c-0.74,3.35-1.48,6.71-2.03,10.1
		c-1.84,11.25-3.62,22.51-5.36,33.77c-1.32,8.53-2.64,17.06-3.81,25.62c-1.02,7.47-2.19,14.94-1.86,22.53
		c0.03,0.59,0.06,1.17,0.12,1.76c0.01,0.12,0.17,0.24,0.38,0.51c0.33-0.52,0.63-0.97,0.9-1.44c7.3-12.92,14.59-25.84,21.9-38.75
		c0.99-1.75,1.92-3.56,3.13-5.15c3.53-4.64,8.3-6.66,14.08-6.1c2.67,0.26,4.01,1.72,3.8,4.06c-0.09,0.94-0.56,1.94-1.1,2.74
		c-8.53,12.67-13.21,26.84-16.41,41.61c-0.16,0.72-0.22,1.47-0.4,2.72c0.95-0.59,1.62-0.85,2.09-1.32c2.48-2.5,5.06-4.91,7.32-7.6
		c6.48-7.73,11.92-16.21,17.21-24.77c2.91-4.71,5.7-9.45,7.2-14.88c0.98-3.54,3.37-6.15,6.63-7.86c0.81-0.43,1.68-0.78,2.57-0.99
		c2.91-0.7,5.08,1.25,4.52,4.21c-0.29,1.54-0.93,3.04-1.61,4.47c-5.2,10.99-10.46,21.95-15.69,32.92c-0.36,0.75-0.68,1.52-0.71,2.55
		c0.53-0.62,1.06-1.23,1.58-1.86c7.7-9.19,15.36-18.42,23.13-27.56c1.89-2.23,4.07-4.23,6.23-6.22c1.48-1.37,3.19-2.47,5.25-2.83
		c2.5-0.44,3.86,0.56,4.16,3.08c0.31,2.66-0.43,5.16-1.29,7.62c-2.76,7.93-4.91,16.02-6.57,24.25c-0.3,1.48-0.52,2.97-0.75,4.46
		c-0.03,0.2,0.1,0.42,0.23,0.93c0.59-0.78,1.05-1.33,1.46-1.93c7.3-10.76,14.59-21.52,21.88-32.28c2.64-3.9,6.08-6.72,10.74-7.73
		c1.15-0.25,2.52-0.07,3.66,0.32c1.54,0.52,1.99,1.94,1.41,3.5c-0.17,0.47-0.4,0.93-0.69,1.33c-5.62,7.68-9.15,16.39-12.09,25.32
		c-1.88,5.72-3.15,11.63-4.68,17.47c-0.12,0.46-0.09,0.95-0.17,2.05c1.72-1.43,3.13-2.44,4.35-3.64c4.08-4.02,7.46-8.59,10.84-13.2
		c6-8.2,11.29-16.85,16.39-25.62c0.59-1.01,1.23-2,1.92-2.95c0.39-0.54,0.86-1.04,1.37-1.46c0.84-0.71,1.81-1.48,2.93-0.79
		c0.99,0.61,0.86,1.75,0.68,2.75c-0.13,0.74-0.35,1.47-0.61,2.17c-0.29,0.78-0.63,1.56-1.04,2.29
		c-7.81,13.92-16.32,27.39-26.82,39.46c-2.68,3.08-5.82,5.78-8.83,8.57c-1.37,1.27-3.09,2-4.98,2.21c-2.93,0.32-5.16-1.11-5.8-3.99
		c-0.3-1.36-0.4-2.85-0.21-4.23c0.79-5.81,1.71-11.61,2.58-17.41c0.11-0.7,0.18-1.41-0.05-2.25c-0.47,0.66-0.97,1.29-1.42,1.97
		c-2.37,3.56-4.63,7.2-7.11,10.68c-1.35,1.9-2.87,3.75-4.63,5.26c-3.25,2.8-6.42,1.87-7.8-2.19c-1.34-3.94-1.54-8.06-1.28-12.18
		c0.17-2.76,0.47-5.51,0.7-8.27c0.07-0.81,0.09-1.62,0.17-2.98c-1.21,0.92-2.07,1.53-2.88,2.21c-11.07,9.31-20.44,20.08-28.04,32.4
		c-0.92,1.5-1.85,3-2.89,4.42c-0.64,0.87-1.4,1.69-2.25,2.34c-2.15,1.64-3.8,0.98-3.87-1.68c-0.05-1.8,0.32-3.66,0.82-5.4
		c0.65-2.25,1.68-4.38,2.46-6.59c1.63-4.58,3.21-9.18,4.81-13.77c0.18-0.53,0.32-1.08,0.14-1.82c-0.52,0.7-1.04,1.4-1.54,2.11
		c-4.8,6.79-9.77,13.44-15.78,19.23c-1.44,1.39-2.97,2.73-4.62,3.87c-1.14,0.79-2.5,1.4-3.86,1.72c-3.48,0.83-6.24-1.11-6.56-4.7
		c-0.18-2.06,0-4.19,0.26-6.26c0.6-4.82,1.35-9.63,2.02-14.44c0.13-0.95,0.15-1.91-0.25-3c-0.46,0.75-0.94,1.5-1.38,2.27
		c-4.23,7.24-8.43,14.5-12.7,21.71c-0.72,1.21-1.59,2.4-2.62,3.35c-2.85,2.65-5.98,1.89-6.81-1.89c-0.86-3.91-1.54-7.95-1.56-11.93
		c-0.05-11.4,0.27-22.81,0.44-34.21c0.01-0.92,0-1.83-0.29-2.91c-0.27,0.51-0.57,1-0.79,1.53c-2.53,5.84-4.86,11.78-7.62,17.51
		c-3.18,6.58-7.06,12.79-12.09,18.16c-1.88,2.01-3.97,3.86-6.14,5.55c-2.15,1.68-4.7,2.57-7.49,2.55c-3.6-0.02-5.64-1.57-6.54-5.05
		c-0.86-3.31-0.57-6.66-0.16-10c0.09-0.74,0.23-1.47,0.44-2.83c-0.81,0.9-1.27,1.32-1.62,1.82c-2.2,3.07-4.33,6.19-6.58,9.21
		c-1.35,1.81-2.85,3.51-4.35,5.21c-0.66,0.75-1.45,1.4-2.26,2c-4.67,3.45-8.34,2.07-9.52-3.57c-0.92-4.41-0.71-8.85-0.23-13.28
		c0.29-2.66,0.79-5.3,1.17-7.96c0.08-0.56,0.07-1.14,0.13-2.27c-1.36,1.11-2.38,1.92-3.38,2.77
		c-14.26,12.19-26.26,26.34-36.51,42.03c-1.6,2.46-3.27,4.88-5.07,7.19c-0.91,1.17-2.08,2.21-3.31,3.05c-2,1.37-3.41,0.62-3.42-1.83
		c-0.01-1.32,0.27-2.68,0.66-3.94c0.5-1.59,1.21-3.12,1.88-4.65c2.35-5.37,4.73-10.74,7.09-16.11c0.26-0.59,0.45-1.2,0.34-1.96
		c-0.56,0.81-1.1,1.63-1.68,2.42c-1.78,2.43-3.48,4.94-5.41,7.25c-1.17,1.39-2.58,2.67-4.12,3.63c-3.35,2.08-5.95,0.82-6.49-3.06
		c-0.23-1.65-0.26-3.35-0.19-5.01c0.08-2,0.36-3.99,0.25-6.15c-0.42,0.75-0.88,1.5-1.27,2.27c-3.23,6.37-6.87,12.49-11.4,18.04
		c-2.67,3.26-5.52,6.33-8.98,8.75c-1.88,1.31-3.88,2.34-6.26,2.36c-2.17,0.02-3.49-0.68-3.83-2.83c-0.4-2.53-0.52-5.18-0.26-7.72
		c0.64-6.46,2.54-12.64,4.7-18.73c5.41-15.24,12.22-29.78,21.82-42.88c3.43-4.69,7.2-9.08,11.84-12.62c1.79-1.37,3.72-2.59,5.7-3.67
		c2.34-1.28,4.93-1.63,7.57-1.25c2.72,0.39,4.59,1.91,5.57,4.49c1.05,2.78,0.01,5.23-2.71,6.4c-0.23,0.1-0.48,0.16-0.71,0.25
		c-5.16,1.78-9.62,4.69-13.63,8.35c-6.36,5.82-11.6,12.56-16.17,19.83c-6.94,11.04-12.71,22.66-16.86,35.05
		c-0.69,2.06-1.15,4.2-1.59,6.33C136.46,210.28,136.61,211.2,136.61,212.24z M280.05,142.62c-2.64-1.24-5.06-1.09-7.13,0.38
		c-2.3,1.63-4.58,3.45-6.41,5.57c-5.96,6.92-10.46,14.75-13.65,23.3c-0.78,2.1-1.28,4.34-1.7,6.55c-0.26,1.37-0.44,3.01,1.03,3.88
		c1.59,0.94,2.99-0.06,4.07-1.08c1.95-1.83,3.89-3.71,5.54-5.8c7.15-9.08,12.2-19.41,17.36-29.66
		C279.63,144.83,279.74,143.73,280.05,142.62z"/>
	<path class="st0" d="M25.23,367.29c-1.06-1.33-0.73-2.88-0.41-4.3c0.41-1.88,0.98-3.73,1.69-5.52
		c12.78-32.08,25.14-64.33,39.45-95.77c5.14-11.29,10.48-22.49,15.73-33.73c0.34-0.73,0.64-1.48,0.66-2.42
		c-1.27,1.41-2.55,2.82-3.82,4.23c-6.21,6.94-12.47,13.83-19.55,19.91c-7.59,6.53-15.59,12.46-24.72,16.71
		c-5.94,2.76-12.08,4.46-18.74,3.86c-5.38-0.49-9.31-3.03-11.74-7.86c-1.99-3.96-2.79-8.24-3.29-12.58
		c-0.97-8.39-0.35-16.76,0.76-25.08c3.43-25.72,10.8-50.44,19.33-74.84c9.92-28.38,21.72-55.94,36.23-82.29
		c7.74-14.05,16.09-27.7,26.29-40.13c5.28-6.44,11-12.44,17.7-17.44c5.22-3.9,10.85-6.97,17.17-8.71
		c12.38-3.41,22.84-0.16,31.5,9.15c4.94,5.31,8.18,11.64,10.47,18.46c3.86,11.47,4.79,23.26,3.83,35.26
		c-0.69,8.65-2.59,17.06-5.19,25.31c-0.65,2.07-1.48,4.1-2.42,6.06c-0.71,1.48-1.55,3.16-3.63,2.92c-1.13-0.13-1.67-2.09-1.27-4.46
		c0.63-3.72,1.46-7.41,1.96-11.14c1.62-12.22,1-24.27-3.28-35.96c-1.89-5.17-4.57-9.9-8.37-13.92c-8.04-8.49-17.71-11.03-28.9-7.67
		c-6.53,1.96-12.2,5.49-17.41,9.82c-8.05,6.7-14.78,14.61-20.89,23.07c-9.65,13.36-17.81,27.61-25.16,42.33
		c-14.86,29.79-26.96,60.63-35.39,92.87c-2.87,10.96-5.16,22.04-6.1,33.35c-0.56,6.69-0.74,13.41,0.81,20.03
		c0.4,1.71,0.92,3.41,1.61,5.01c2.08,4.85,5.83,7.39,11.09,7.78c5.14,0.38,10-0.71,14.68-2.76c6.35-2.78,12.03-6.64,17.38-11
		c10.58-8.64,19.68-18.71,28.14-29.38c2.97-3.74,5.87-7.55,8.77-11.35c6.17-8.09,11.38-16.77,16-25.84
		c6.81-13.37,13.8-26.65,20.75-39.95c0.81-1.55,1.73-3.1,2.87-4.41c2.93-3.38,6.43-2.92,8.45,1.05c1.78,3.5,1.91,7.25,1.43,11.06
		c-0.5,3.97-1.94,7.61-3.92,11.06c-9.11,15.85-18.18,31.71-27.29,47.56c-12.91,22.46-25.87,44.89-37.75,67.92
		c-12,23.26-22.55,47.19-32.96,71.18c-2.04,4.69-4,9.41-6.13,14.06c-1.08,2.35-2.41,4.59-3.76,6.8
		C27.31,366.48,26.63,367.48,25.23,367.29z"/>
	<path class="st0" d="M333.79,106.19c0.47-2.16,0.69-4.27,1.41-6.19c1.16-3.08,3.57-4.17,6.63-3.4c3.43,0.87,5.04,2.99,4.64,6.37
		c-0.56,4.77-3.03,8.46-6.82,11.25c-2.03,1.49-3.49,1.09-4.29-1.25C334.61,110.79,334.29,108.46,333.79,106.19z"/>
	<path class="st0" d="M416.75,102.59c0.47-2.11,0.71-4.3,1.47-6.29c1.16-3.03,3.42-4.04,6.42-3.32c3.43,0.83,5.01,2.7,4.79,6
		c-0.34,5.02-2.97,8.81-6.91,11.69c-2,1.46-3.42,0.99-4.24-1.41C417.56,107.16,417.26,104.91,416.75,102.59z"/>
</g>
</svg>
