<svg xmlns="http://www.w3.org/2000/svg" width="95.331" height="11.202" viewBox="0 0 95.331 11.202"><path id="mixcloud-vector-logo" fill="#fff" d="M-35.769,245.293c0-4.687-2.923-5.434-5.72-5.434h-3.8v10.9h3.8c2.8-.016,5.72-.763,5.72-5.466Zm-1.97,0c0,3.5-1.811,3.718-3.75,3.718h-.953a1.408,1.408,0,0,0-.747.159l-.413.27-.35-.35.238-.143h0a1.037,1.037,0,0,0,.365-.477,1.9,1.9,0,0,0,.064-.461h0v-5.482a1.946,1.946,0,0,0-.032-.3,1,1,0,0,0-.381-.556l-.238-.143.35-.35.413.27a1.193,1.193,0,0,0,.286.111c.032,0,.143.016.175.016h1.239c1.907.016,3.734.238,3.734,3.718Zm-9.374,1.414v-6.848H-49.1v6.1c0,2.05-.413,3.209-2.685,3.209s-2.685-1.16-2.685-3.209v-6.1h-1.986v6.848c0,2.717,1.541,4.195,4.671,4.195C-48.67,250.9-47.113,249.424-47.113,246.707Zm-10.9-1.414c0-3.162-2.018-5.593-5.354-5.593-3.352,0-5.37,2.431-5.37,5.593,0,3.178,2.018,5.609,5.37,5.609C-60.031,250.9-58.013,248.486-58.013,245.293Zm-1.986,0c0,2.3-1.112,3.877-3.368,3.877s-3.368-1.573-3.368-3.877c0-2.288,1.128-3.861,3.368-3.861,2.256,0,3.368,1.573,3.368,3.861ZM-77.921,250.9l7.976-1.4V247.6l-7.738,1.335-.222-.238c.238-.064.794-.286.794-.715v-8.135H-79.1v9.914A1.054,1.054,0,0,0-77.921,250.9Zm-11.472-5.609c0-2.4,1.271-3.861,3.416-3.861a2.934,2.934,0,0,1,3.178,2.622h1.986c-.318-2.685-2.256-4.353-5.2-4.353-3.337,0-5.37,2.431-5.37,5.593,0,3.178,2.034,5.609,5.37,5.609,2.939,0,4.878-1.668,5.2-4.369h-1.97a2.947,2.947,0,0,1-3.178,2.637C-88.122,249.17-89.393,247.708-89.393,245.293Zm-8.58,1.684,5.164,3.718v-2.288l-4.385-3.1,4.369-3.1v-2.3l-5.164,3.734h-.556l-5.132-3.734v2.288l4.369,3.114-4.353,3.1v2.288l5.148-3.718Zm-18.288-.683h10.9v-1.986h-10.9Zm-4.083,4.449h1.986v-10.9h-3.924l-2.193,10.391h-.508l-2.193-10.391H-131.1v10.9h1.986v-9.088l-.35-1.3h.62l2.3,10.391h3.654l2.288-10.391h.636l-.365,1.3v9.088Z" transform="translate(131.1 -239.7)"/></svg>