<svg xmlns="http://www.w3.org/2000/svg" xmlns:xlink="http://www.w3.org/1999/xlink" id="Soundcloud_logo" width="134.104" height="15.188" viewBox="0 0 134.104 15.188"><defs><clipPath id="clip-path"><path id="Path_16" fill="#fff" d="M.215,9.156,0,11.095l.215,1.939a.105.105,0,0,0,.108.108.105.105,0,0,0,.108-.108l.323-1.939L.431,9.156a.105.105,0,0,0-.108-.108.105.105,0,0,0-.108.108M1.508,7.971l-.323,3.124.323,3.124a.108.108,0,1,0,.215,0l.431-3.124L1.723,7.971a.105.105,0,0,0-.108-.108h0l-.108.108M5.6,7.54l-.215,3.555.215,3.77a.215.215,0,1,0,.431,0l.431-3.77L6.14,7.54a.232.232,0,0,0-.215-.215c-.215,0-.323.108-.323.215M2.908,7.325l-.323,3.77.323,3.555a.232.232,0,0,0,.215.215.376.376,0,0,0,.108-.215l.323-3.555-.323-3.77a.232.232,0,0,0-.215-.215c0,.108-.108.108-.108.215M4.2,7.217l-.323,3.878L4.2,14.757a.215.215,0,1,0,.431,0l.323-3.662L4.632,7.217A.232.232,0,0,0,4.416,7c-.108,0-.108.108-.215.215M7,5.278l-.323,5.817L7,14.864a.232.232,0,0,0,.215.215c.215,0,.323-.108.323-.215l.323-3.77L7.54,5.278a.232.232,0,0,0-.215-.215c-.215,0-.323.108-.323.215M8.4,3.985l-.215,7.109.215,3.77a.286.286,0,0,0,.323.323.344.344,0,0,0,.323-.323l.323-3.77L9.048,3.985a.323.323,0,1,0-.646,0m66.459-.431V9.8c-.108-.215-.431-.754-.646-1.077l-3.447-5.17H68.937v9.8h1.939V6.894c.108.215.431.754.646,1.077l3.555,5.386H76.8v-9.8Zm6.463,1.939H82.4c2.047,0,2.908.969,2.908,3.016a2.725,2.725,0,0,1-3.016,3.016h-.969V5.493Zm-1.939,7.863h2.908c2.477,0,5.063-1.4,5.063-4.847,0-3.555-2.047-4.847-4.847-4.847H79.385v9.694Zm19.281-9.8v9.8h5.924V11.418h-3.878V3.555Zm29.514,1.939h1.077c2.047,0,2.908.969,2.908,3.016a2.725,2.725,0,0,1-3.016,3.016h-.969Zm-1.939,7.863h2.908A4.731,4.731,0,0,0,134.1,9.694V7.217c-.431-2.585-2.262-3.555-4.739-3.555H126.24v9.694Zm-86.925-7c0,1.939,1.293,2.477,3.016,2.908,1.831.431,2.154.646,2.154,1.293,0,.754-.539,1.077-1.723,1.077a3.119,3.119,0,0,1-2.477-1.077l-1.4,1.293a4.593,4.593,0,0,0,3.77,1.831c2.693,0,3.878-1.293,3.878-3.124,0-2.154-1.723-2.693-3.231-3.016S41.362,7,41.362,6.355c0-.431.323-.862,1.4-.862a3.1,3.1,0,0,1,2.262.969l1.4-1.4A4.711,4.711,0,0,0,42.87,3.555h-.323c-1.831,0-3.231,1.077-3.231,2.8M50.087,8.509c0-1.723.646-3.124,2.262-3.124s2.262,1.4,2.262,3.124-.646,3.124-2.262,3.124-2.262-1.4-2.262-3.124m-2.047,0c0,3.016,1.616,5.063,4.2,5.063,2.693,0,4.309-2.047,4.309-5.063s-1.616-5.063-4.309-5.063c-2.585,0-4.2,2.047-4.2,5.063M64.52,3.447h0v5.6c0,1.616-.754,2.585-2.047,2.585s-2.047-.969-2.047-2.585V3.555H58.488V9.048c0,2.8,1.616,4.416,3.985,4.416,2.477,0,3.985-1.616,3.985-4.524V3.447ZM88.971,8.509c0,3.124,1.723,5.063,4.309,5.063a3.841,3.841,0,0,0,3.662-2.262l-1.616-.969a2.18,2.18,0,0,1-1.939,1.293c-1.508,0-2.37-1.293-2.37-3.124s.862-3.124,2.262-3.124a2.085,2.085,0,0,1,1.831,1.077L96.942,5.6a3.661,3.661,0,0,0-3.555-2.154c-2.585,0-4.416,2.047-4.416,5.063m18.527,0c0-1.723.646-3.124,2.262-3.124s2.262,1.4,2.262,3.124-.646,3.124-2.262,3.124-2.262-1.4-2.262-3.124m-2.047,0c0,3.016,1.616,5.063,4.2,5.063,2.693,0,4.2-2.047,4.2-5.063s-1.616-5.063-4.2-5.063-4.2,2.047-4.2,5.063m16.372-5.063h0v5.6c0,1.616-.754,2.585-2.047,2.585s-2.047-.969-2.047-2.585V3.555h-1.939V9.048c0,2.8,1.616,4.416,3.985,4.416,2.477,0,3.985-1.616,3.985-4.524V3.447ZM14.11,3.662,13.9,11.095l.215,3.555a.431.431,0,0,0,.862,0l.215-3.555-.215-7.54a.463.463,0,0,0-.431-.431c-.323.108-.431.215-.431.539M9.8,3.339l-.215,7.755L9.8,14.757a.323.323,0,1,0,.646,0l.215-3.662-.215-7.755a.286.286,0,0,0-.323-.323.344.344,0,0,0-.323.323m2.8,0-.215,7.755.215,3.662a.431.431,0,1,0,.862,0l.215-3.662-.215-7.755a.431.431,0,1,0-.862,0m-1.4-.215-.215,7.971.215,3.662a.323.323,0,1,0,.646,0l.215-3.662-.215-7.971a.323.323,0,0,0-.646,0m4.309-.969-.215,8.94.215,3.555a.431.431,0,0,0,.862,0l.215-3.555-.215-8.94a.431.431,0,0,0-.862,0M17.019,1.4,16.8,11.095l.215,3.555a.431.431,0,0,0,.862,0l.215-3.555L17.88,1.4A.463.463,0,0,0,17.45.969h-.108c-.215,0-.323.215-.323.431M18.742.431c-.323.108-.431.215-.431.539v13.68a.716.716,0,0,0,.431.539H30.7a4.309,4.309,0,0,0,0-8.617,3.935,3.935,0,0,0-1.616.323A7.523,7.523,0,0,0,21.543,0H21a8.39,8.39,0,0,0-2.262.431" data-name="Path 16"/></clipPath></defs><g id="Group_4" clip-path="url(#clip-path)" data-name="Group 4"><rect id="Rectangle_7" width="134.103" height="15.188" fill="#fff" data-name="Rectangle 7"/></g></svg>