<svg xmlns="http://www.w3.org/2000/svg" width="79.032" height="24.591" viewBox="0 0 79.032 24.591"><path d="M86.726,1369.15a12.3,12.3,0,1,0,12.3,12.3,12.3,12.3,0,0,0-12.3-12.3h0Zm5.639,17.733a.766.766,0,0,1-1.054.255c-2.887-1.765-6.521-2.163-10.8-1.186a.766.766,0,1,1-.341-1.494c4.684-1.071,8.7-.61,11.942,1.37a.766.766,0,0,1,.254,1.054h0Zm1.5-3.347a.959.959,0,0,1-1.319.316,16.139,16.139,0,0,0-12.252-1.433.958.958,0,1,1-.557-1.834,17.937,17.937,0,0,1,13.812,1.634.958.958,0,0,1,.316,1.318h0ZM94,1380.05c-3.963-2.354-10.5-2.57-14.284-1.422a1.15,1.15,0,0,1-.668-2.2c4.343-1.318,11.563-1.064,16.126,1.645A1.15,1.15,0,0,1,94,1380.05h0Zm13.884.451c-2.123-.506-2.5-.862-2.5-1.608,0-.705.664-1.18,1.652-1.18a4.827,4.827,0,0,1,2.9,1.1.14.14,0,0,0,.2-.031l1.037-1.461a.139.139,0,0,0-.026-.189,6.271,6.271,0,0,0-4.077-1.412c-2.292,0-3.893,1.376-3.893,3.344,0,2.111,1.381,2.858,3.768,3.435,2.031.468,2.374.86,2.374,1.561,0,.776-.693,1.259-1.809,1.259a4.876,4.876,0,0,1-3.381-1.4.146.146,0,0,0-.1-.033.139.139,0,0,0-.1.049l-1.162,1.383a.138.138,0,0,0,.014.193,6.929,6.929,0,0,0,4.68,1.795c2.47,0,4.066-1.35,4.066-3.438,0-1.763-1.051-2.74-3.637-3.369Zm9.229-2.094a3.331,3.331,0,0,0-2.673,1.286v-.973a.139.139,0,0,0-.139-.139h-1.9a.139.139,0,0,0-.139.139v10.807a.139.139,0,0,0,.139.139h1.9a.139.139,0,0,0,.139-.139v-3.411a3.415,3.415,0,0,0,2.673,1.21c1.989,0,4-1.531,4-4.459s-2.011-4.46-4-4.46Zm1.793,4.46a2.291,2.291,0,0,1-2.233,2.531,2.545,2.545,0,0,1,0-5.062,2.317,2.317,0,0,1,2.233,2.531h0Zm7.372-4.46a4.469,4.469,0,1,0,4.553,4.46,4.483,4.483,0,0,0-4.553-4.46Zm0,7.006a2.418,2.418,0,0,1-2.39-2.547,2.361,2.361,0,0,1,2.359-2.516,2.425,2.425,0,0,1,2.406,2.548,2.367,2.367,0,0,1-2.374,2.515Zm10.024-6.832h-2.092v-2.139a.139.139,0,0,0-.139-.139h-1.9a.139.139,0,0,0-.139.139v2.139h-.914a.139.139,0,0,0-.138.139v1.634a.139.139,0,0,0,.138.139h.914v4.227a2.261,2.261,0,0,0,2.527,2.574,3.467,3.467,0,0,0,1.781-.443.138.138,0,0,0,.07-.12v-1.556a.139.139,0,0,0-.2-.125,2.4,2.4,0,0,1-1.116.269c-.61,0-.882-.277-.882-.9v-3.928H136.3a.139.139,0,0,0,.139-.139v-1.634a.135.135,0,0,0-.137-.139Zm7.288.008v-.263c0-.773.3-1.117.961-1.117a3.208,3.208,0,0,1,1.071.2.139.139,0,0,0,.183-.132v-1.6a.139.139,0,0,0-.1-.134,5.216,5.216,0,0,0-1.58-.227c-1.756,0-2.684.989-2.684,2.858v.4h-.913a.14.14,0,0,0-.139.139v1.642a.14.14,0,0,0,.139.139h.913v6.52a.139.139,0,0,0,.139.139h1.9a.14.14,0,0,0,.139-.139v-6.52h1.775l2.719,6.519c-.309.685-.612.821-1.026.821a2.192,2.192,0,0,1-1.048-.3.143.143,0,0,0-.111-.01.141.141,0,0,0-.082.075l-.644,1.413a.138.138,0,0,0,.06.18,4,4,0,0,0,2.03.52c1.4,0,2.179-.654,2.863-2.413l3.3-8.522a.139.139,0,0,0-.129-.19h-1.979a.14.14,0,0,0-.132.093l-2.027,5.791-2.22-5.794a.139.139,0,0,0-.13-.09h-3.247Zm-4.226-.008h-1.9a.14.14,0,0,0-.139.139v8.293a.14.14,0,0,0,.139.139h1.9a.14.14,0,0,0,.139-.139v-8.293a.139.139,0,0,0-.139-.139Zm-.94-3.776a1.363,1.363,0,1,0,1.363,1.363,1.363,1.363,0,0,0-1.363-1.363Z" transform="translate(-74.43 -1369.15)"/></svg>