<svg xmlns="http://www.w3.org/2000/svg" width="69.271" height="23.091" viewBox="0 0 69.271 23.091"><path id="Subtraction_8" fill="#fff" d="M46.181,23.091h-7.9L35.851,20.66V23.09H19.445L17.014,20.66V23.09H8.507L0,14.584V0H6.684L9.752,4.253H28.559V0H41.927V4.253h4.253V6.077L48,4.253h5.451L56.524,0h6.671V4.253h3.038l3.038,3.038v10.33L63.8,23.09H48.612L46.181,20.66V23.09Zm15.8-12.761h1.215v6.076h4.862V7.9L65.625,5.468H61.979V1.215H57.118V16.406h4.861V10.331ZM48.612,5.468h0L46.181,7.9v6.077l2.431,2.431H55.9V11.545H51.042V10.33H55.9V5.468ZM35.851,1.215V13.976l1.216,1.215,1.215,1.216h6.684V11.545H40.712V10.33h4.253V5.468H40.712V1.215ZM11.545,5.468v8.508l2.431,2.431H28.559V5.468H23.7v6.077H22.483V5.468H17.622v6.077H16.406V5.468ZM1.215,1.215V13.976l2.431,2.431H10.33V11.545H6.077V10.33H10.33V5.468H6.077V1.215Zm28.56,4.253V16.406h4.861V5.468Zm0-4.253V4.253h.135v.028h4.625V4.253h.1V1.215h-.1V1.2H29.91v.017Z" data-name="Subtraction 8"/></svg>