<svg xmlns="http://www.w3.org/2000/svg" width="86.151" height="19.266" viewBox="0 0 86.151 19.266"><g id="Group_15" data-name="Group 15" transform="translate(-4183.829 -3884)"><g id="Group_14" data-name="Group 14"><g id="Group_13" data-name="Group 13"><g id="Group_12" data-name="Group 12"><g id="Group_11" data-name="Group 11"><path id="Subtraction_1" fill="#fff" d="M-2741.242-1286.734c-.086,0-8.615-.007-10.726-.582a3.468,3.468,0,0,1-2.436-2.435c-.928-3.7-.659-9.443-.017-13.214a3.466,3.466,0,0,1,2.435-2.435c2.089-.57,10.374-.6,10.726-.6.086,0,8.616.007,10.727.582a3.471,3.471,0,0,1,2.434,2.434c.911,3.666.7,9.432.018,13.232a3.468,3.468,0,0,1-2.435,2.435C-2732.625-1286.741-2741.156-1286.734-2741.242-1286.734Zm-2.752-13.761v8.257l7.128-4.128-7.128-4.128Z" data-name="Subtraction 1" transform="translate(6938.834 5190)"/><path id="Path_7" fill="#fff" d="M182.686,24.343a2.993,2.993,0,0,1-1.164-1.711,11.251,11.251,0,0,1-.335-3.087V17.8a10.066,10.066,0,0,1,.388-3.123,3.044,3.044,0,0,1,1.235-1.711A4.056,4.056,0,0,1,185,12.417a3.684,3.684,0,0,1,2.135.547,3.19,3.19,0,0,1,1.182,1.711,10.575,10.575,0,0,1,.37,3.105v1.747a10.445,10.445,0,0,1-.37,3.087,3.1,3.1,0,0,1-1.182,1.711,4.036,4.036,0,0,1-2.205.547A3.94,3.94,0,0,1,182.686,24.343Zm3.052-1.888a5.633,5.633,0,0,0,.229-1.923V16.774a5.467,5.467,0,0,0-.229-1.888.814.814,0,0,0-.794-.6.794.794,0,0,0-.776.6,5.536,5.536,0,0,0-.229,1.888v3.758a6.241,6.241,0,0,0,.212,1.923.79.79,0,0,0,.794.582A.818.818,0,0,0,185.738,22.455Zm38.672-2.876V20.2l.071,1.747a1.755,1.755,0,0,0,.282.847.969.969,0,0,0,1.5-.212,4.068,4.068,0,0,0,.247-1.57l2.346.141a2.866,2.866,0,0,1,.018.423,3.148,3.148,0,0,1-.917,2.488,3.734,3.734,0,0,1-2.576.829,3.071,3.071,0,0,1-2.805-1.253,7.4,7.4,0,0,1-.812-3.881V17.621c.06-3,.588-5.2,3.687-5.2a3.775,3.775,0,0,1,2.135.512,2.77,2.77,0,0,1,1.059,1.588,11.137,11.137,0,0,1,.3,2.982v2.064H224.41Zm.353-5.081a1.678,1.678,0,0,0-.282.829c-.053.388-.071,1.764-.071,1.764v.864h1.976v-.864c0,.864-.018-1.358-.071-1.764a1.625,1.625,0,0,0-.282-.847.81.81,0,0,0-.635-.247A.823.823,0,0,0,224.763,14.5ZM176.087,19.35,173,8.2h2.7s1.261,5.593,1.694,8.221h.071c.491-2.791,1.729-8.221,1.729-8.221h2.7l-3.123,11.132v5.346h-2.664V19.35Z" data-name="Path 7" transform="translate(4041.036 3877.176)"/><path id="A" fill="#fff" d="M277.322,33.4V45.45H275.2l-.229-1.482h-.053a2.794,2.794,0,0,1-2.593,1.676c-2.077-.005-2.308-1.764-2.329-3.246v-9h2.717v8.839a2.623,2.623,0,0,0,.176,1.147c.251.49.9.365,1.253.123a1.411,1.411,0,0,0,.476-.547V33.4Z" transform="translate(3961.149 3856.422)"/><path id="Path_8" fill="#fff" d="M315.745,7.505h-2.7V21.813H310.4V7.505h-2.7V5.317h8.027V7.505Zm15.508,4.181a3.109,3.109,0,0,0-.794-1.658,2.161,2.161,0,0,0-1.517-.512,2.488,2.488,0,0,0-1.394.423,2.9,2.9,0,0,0-1.006,1.111h-.018V4.7h-2.611V21.8h2.241l.282-1.147h.053a2.47,2.47,0,0,0,.935.97,2.869,2.869,0,0,0,1.394.353,2.149,2.149,0,0,0,2.029-1.27,9.252,9.252,0,0,0,.653-3.952V14.844A16.163,16.163,0,0,0,331.253,11.686Zm-2.488,4.922a15.467,15.467,0,0,1-.106,2.064,2.156,2.156,0,0,1-.37,1.059.853.853,0,0,1-.688.318,1.191,1.191,0,0,1-1.076-.635V12.569a1.636,1.636,0,0,1,.476-.812.865.865,0,0,1,1.359,0,2.526,2.526,0,0,1,.318,1.094c.053.512.088,1.235.088,2.188Z" data-name="Path 8" transform="translate(3930.1 3880.059)"/><path id="Path_9" fill="#fff" d="M277.322,33.4V45.45H275.2l-.229-1.482h-.053a2.794,2.794,0,0,1-2.593,1.676c-2.077-.005-2.308-1.764-2.329-3.246v-9h2.717v8.839a2.623,2.623,0,0,0,.176,1.147c.251.49.9.365,1.253.123a1.411,1.411,0,0,0,.476-.547V33.4Z" data-name="Path 9" transform="translate(3975.069 3856.422)"/></g></g></g></g></g></svg>