<svg xmlns="http://www.w3.org/2000/svg" width="73.317" height="22.217" viewBox="0 0 73.317 22.217">
  <defs>
    <style>
      .cls-1 {
        fill: #fff;
      }
    </style>
  </defs>
  <g id="Grupo_15" data-name="Grupo 15" transform="translate(-3307.83 -3514.455)">
    <path id="Sustracci贸n_4" data-name="Sustracci贸n 4" class="cls-1" d="M11.294,22.217a11.385,11.385,0,0,1-4.4-.873,11.268,11.268,0,0,1-3.59-2.381,11.063,11.063,0,0,1-2.42-3.531,10.977,10.977,0,0,1,0-8.648,11.062,11.062,0,0,1,2.42-3.531A11.266,11.266,0,0,1,6.9.873a11.5,11.5,0,0,1,8.792,0,11.265,11.265,0,0,1,3.59,2.381A11.064,11.064,0,0,1,21.7,6.785a10.977,10.977,0,0,1,0,8.648,11.065,11.065,0,0,1-2.42,3.531,11.267,11.267,0,0,1-3.59,2.381A11.386,11.386,0,0,1,11.294,22.217Zm0-20.3a9.247,9.247,0,0,0-9.283,9.19,9.283,9.283,0,0,0,18.565,0A9.247,9.247,0,0,0,11.294,1.919Zm0,13.33a4.141,4.141,0,1,1,4.233-4.14A4.192,4.192,0,0,1,11.294,15.249ZM8.98,7.869v6.48l5.925-3.24Z" transform="translate(3307.83 3514.455)"/>
    <path id="Sustracci贸n_3" data-name="Sustracci贸n 3" class="cls-1" d="M6.758,13.33a6.784,6.784,0,0,1-4.779-1.952A6.639,6.639,0,0,1,.531,9.26a6.6,6.6,0,0,1,0-5.189A6.639,6.639,0,0,1,1.979,1.952,6.838,6.838,0,0,1,9.388.524a6.741,6.741,0,0,1,2.148,1.428,6.639,6.639,0,0,1,1.448,2.119,6.6,6.6,0,0,1,0,5.189,6.638,6.638,0,0,1-1.448,2.119A6.784,6.784,0,0,1,6.758,13.33ZM4.443,3.286v6.48l5.925-3.24Z" transform="translate(3312.366 3518.898)"/>
    <path id="Trazado_27" data-name="Trazado 27" class="cls-1" d="M138.87,18.66c-.555,2.685-.926,5.832-1.111,7.221h-.185c-.185-1.389-.555-4.536-1.111-7.128l-1.389-6.48h-4.166v17.5H133.5V15.328l.278,1.389,2.685,13.053h2.592l2.592-13.053.185-1.389V29.676h2.592v-17.4h-4.258c.093,0-1.3,6.387-1.3,6.387Z" transform="translate(3203.582 3504.681)"/>
    <path id="Trazado_28" data-name="Trazado 28" class="cls-1" d="M211.909,45.545a1.568,1.568,0,0,1-1.3.833c-.555,0-.833-.463-.833-1.574v-9.35h-2.962V44.9c0,2.314.833,3.425,2.592,3.425a3.209,3.209,0,0,0,2.87-1.759h.093l.278,1.574h2.314V35.455h-3.055Z" transform="translate(3143.132 3486.221)"/>
    <path id="Trazado_29" data-name="Trazado 29" class="cls-1" d="M257.625,39.729c-.926-.648-1.574-1.111-1.574-2.129a.982.982,0,0,1,1.111-1.111c.833,0,1.111.555,1.111,2.5l2.5-.093c.185-3.055-.833-4.351-3.61-4.351-2.5,0-3.8,1.111-3.8,3.333,0,2.037,1.018,2.962,2.685,4.258,1.481,1.111,2.314,1.666,2.314,2.592a1.1,1.1,0,0,1-1.2,1.111c-.926,0-1.389-.833-1.3-2.222h-2.5c-.37,2.685.741,4.166,3.61,4.166,2.592,0,3.888-1.111,3.888-3.425.185-2.129-.926-2.962-3.24-4.629Z" transform="translate(3106.118 3486.945)"/>
    <path id="Trazado_30" data-name="Trazado 30" class="cls-1" d="M299.091,35.455h2.87V48.137h-2.87Z" transform="translate(3069.652 3486.221)"/>
    <path id="Trazado_31" data-name="Trazado 31" class="cls-1" d="M300.21,10.455c-1.111,0-1.574.37-1.574,1.759s.555,1.759,1.574,1.759c1.111,0,1.574-.37,1.574-1.759C301.784,10.917,301.321,10.455,300.21,10.455Z" transform="translate(3070.014 3506.129)"/>
    <path id="Trazado_32" data-name="Trazado 32" class="cls-1" d="M329.956,42.877l-2.592-.093c0,2.222-.278,2.962-1.111,2.962s-1.018-.833-1.018-3.425v-2.5c0-2.592.185-3.333,1.018-3.333s1.018.741,1.018,3.147l2.592-.185c.185-1.944-.093-3.333-.833-4.073a3.731,3.731,0,0,0-2.685-.833c-2.87,0-4.073,1.481-4.073,5.739v1.759c0,4.351,1.018,5.739,3.981,5.739a3.731,3.731,0,0,0,2.685-.833C329.678,46.117,329.956,44.821,329.956,42.877Z" transform="translate(3051.191 3486.945)"/>
  </g>
</svg>
